<svg fill="none" height="316" viewBox="0 0 316 316" width="316" xmlns="http://www.w3.org/2000/svg" xmlns:xlink="http://www.w3.org/1999/xlink"><filter id="a" color-interpolation-filters="sRGB" filterUnits="userSpaceOnUse" height="106.304" width="252.231" x="36.541" y="145.745"><feFlood flood-opacity="0" result="BackgroundImageFix"/><feColorMatrix in="SourceAlpha" result="hardAlpha" type="matrix" values="0 0 0 0 0 0 0 0 0 0 0 0 0 0 0 0 0 0 127 0"/><feOffset/><feGaussianBlur stdDeviation="10"/><feComposite in2="hardAlpha" operator="out"/><feColorMatrix type="matrix" values="0 0 0 0 1 0 0 0 0 1 0 0 0 0 1 0 0 0 0.25 0"/><feBlend in2="BackgroundImageFix" mode="normal" result="effect1_dropShadow_490_38"/><feBlend in="SourceGraphic" in2="effect1_dropShadow_490_38" mode="normal" result="shape"/></filter><rect fill="#283943" height="295" rx="147.5" stroke="#283943" stroke-width="21" width="295" x="10.5" y="10.5"/><g filter="url(#a)"><path d="m76.6688 172.109v3.922h-11.396v-3.922zm-11.396 14.06v-4.218h11.396v4.218zm19.61 6.29v-26.714h-28.342v66.304h8.732v-39.59zm21.0162 14.282v-7.104h-9.6942v-5.698h-7.918v5.698h-18.87v7.104h14.948c-4.366 5.18-11.174 10.138-17.464 12.802 1.776 1.48 4.144 4.366 5.476 6.29 5.55-3.034 11.322-7.844 15.91-13.172v9.62c0 .814-.296 1.036-1.184 1.036s-3.626 0-6.364-.074c1.036 1.998 2.22 5.18 2.59 7.252 4.366 0 7.548-.148 9.842-1.332 2.442-1.11 3.034-3.182 3.034-6.734v-15.688zm-7.5482-20.424v-4.366h11.7662v4.366zm11.7662-14.208v3.922h-11.7662v-3.922zm8.88-6.364h-29.0082v26.862h20.1282v28.786c0 1.332-.518 1.776-1.924 1.776-1.48.074-6.438.148-10.7302-.148 1.184 2.368 2.6642 6.512 2.9602 9.028 6.808 0 11.396-.222 14.504-1.702 3.034-1.406 4.07-3.922 4.07-8.806zm53.872 7.992-6.364 2.59c2.664 3.774 4.514 7.252 6.66 11.84l6.512-2.812c-1.628-3.33-4.81-8.584-6.808-11.618zm9.694-3.996-6.216 2.886c2.664 3.552 4.662 6.882 6.956 11.47l6.364-3.034c-1.702-3.256-5.032-8.436-7.104-11.322zm-28.49-1.85-11.692-.148c.666 2.886.962 6.364.962 9.842 0 6.142-.74 25.234-.74 34.928 0 12.432 7.696 17.612 19.61 17.612 16.502 0 26.714-9.694 31.45-16.576l-6.586-8.066c-5.254 7.918-12.876 14.8-24.864 14.8-5.55 0-9.99-2.442-9.99-9.768 0-8.954.592-25.086.962-32.93.148-2.96.518-6.586.888-9.694zm79.328 48.544c0-1.776 1.702-3.478 4.514-3.478 3.922 0 6.586 3.034 7.03 7.77-1.332.148-2.738.222-4.218.222-4.44 0-7.326-1.776-7.326-4.514zm-12.358-46.694.296 9.472c1.702-.222 3.922-.444 5.92-.592 3.848-.222 13.764-.666 17.538-.74-3.552 3.182-11.174 9.176-15.244 12.58-4.218 3.552-12.95 10.878-18.13 15.022l6.66 6.808c7.77-8.806 15.022-14.726 26.122-14.726 8.51 0 15.022 4.44 15.022 10.952 0 4.44-1.998 7.77-5.92 9.916-1.036-6.882-6.512-12.432-15.466-12.432-7.696 0-13.098 5.476-13.098 11.322 0 7.326 7.622 11.988 17.76 11.988 17.538 0 26.27-9.176 26.27-20.646 0-10.508-9.398-18.278-21.682-18.278-2.294 0-4.514.222-6.956.814 4.588-3.552 12.284-9.916 16.206-12.728 1.628-1.184 3.33-2.22 5.032-3.33l-4.736-6.512c-.814.296-2.516.518-5.55.74-4.144.37-19.61.74-23.458.74-2.072 0-4.514-.148-6.586-.37z" fill="#fff"/></g><g stroke="#fff" stroke-linecap="round" stroke-linejoin="round" stroke-width="13"><path d="m191 135-57-57"/><path d="m134 135 57-57"/></g></svg>