<svg fill="none" height="30" viewBox="0 0 30 30" width="30" xmlns="http://www.w3.org/2000/svg" xmlns:xlink="http://www.w3.org/1999/xlink"><clipPath id="a"><path d="m0 0h30v30h-30z"/></clipPath><g clip-path="url(#a)"><path d="m27.375 0-16.3125 17.9531-4.73438-3.6093h-2.625l7.35938 11.9531 18.9375-26.2969z" fill="#e8a6a6"/><path d="m25.2656 26.2969c0 .2812-.2344.5156-.5156.5156h-21.04688c-.28124 0-.51562-.2344-.51562-.5156v-21.0469c0-.28125.23438-.51562.51562-.51562h14.39068l2.8593-3.14063h-19.92185c-.5625 0-1.03125.46875-1.03125 1.03125v26.2969c0 .6094.46875 1.0781 1.03125 1.0781h26.29685c.5625 0 1.0313-.4688 1.0313-1.0312v-20.48442l-3.1406 4.40622c.0468 0 .0468 13.4063.0468 13.4063z" fill="#3b4c55"/></g></svg>