<svg fill="none" height="24" viewBox="0 0 24 24" width="24" xmlns="http://www.w3.org/2000/svg"><path d="m9.99981 18.9999c-.23366.0005-.46009-.0809-.64-.23-.10126-.0839-.18496-.187-.24632-.3034-.06135-.1163-.09914-.2436-.11122-.3746s.00181-.263.04085-.3886c.03905-.1256.10248-.2423.18669-.3434l4.47999-5.36-4.31999-5.36996c-.08307-.10229-.1451-.21998-.18253-.34632s-.04953-.25883-.03559-.38986.05364-.25801.11681-.37365c.06318-.11564.14858-.21765.25131-.30017.10346-.09104.22463-.1597.35589-.20169.1313-.04199.2698-.0564.4069-.04231.1371.01408.2698.05635.3898.12416.1199.0678.2246.15967.3074.26984l4.83 5.99996c.1471.179.2275.4034.2275.635 0 .2317-.0804.4561-.2275.635l-5 6c-.1003.1211-.2277.2167-.372.2793-.1442.0625-.3011.0902-.45799.0807z" fill="#283943"/></svg>