<svg fill="none" height="38" viewBox="0 0 38 38" width="38" xmlns="http://www.w3.org/2000/svg"><path d="m19 3.5625c-8.5121 0-15.4375 6.9254-15.4375 15.4375s6.9254 15.4375 15.4375 15.4375 15.4375-6.9254 15.4375-15.4375-6.9254-15.4375-15.4375-15.4375zm5.5894 19.3481c.1149.1092.2068.2402.2703.3855.0634.1452.0972.3017.0992.4602s-.0277.3158-.0874.4626-.1482.2802-.2603.3923-.2455.2006-.3923.2603-.3041.0894-.4626.0874-.315-.0358-.4602-.0992c-.1453-.0635-.2763-.1554-.3855-.2703l-3.9106-3.9098-3.9106 3.9098c-.2245.2133-.5235.3305-.8331.3265-.3097-.004-.6055-.1287-.8245-.3477s-.3437-.5148-.3477-.8245c-.004-.3096.1132-.6086.3265-.8331l3.9098-3.9106-3.9098-3.9106c-.2133-.2245-.3305-.5235-.3265-.8331.004-.3097.1287-.6055.3477-.8245s.5148-.3437.8245-.3477c.3096-.004.6086.1132.8331.3265l3.9106 3.9098 3.9106-3.9098c.2245-.2133.5235-.3305.8331-.3265.3097.004.6055.1287.8245.3477s.3437.5148.3477.8245c.004.3096-.1132.6086-.3265.8331l-3.9098 3.9106z" fill="#283943"/></svg>